<?xml version="1.0" standalone="no"?>
<!DOCTYPE svg PUBLIC "-//W3C//DTD SVG 20010904//EN"
 "http://www.w3.org/TR/2001/REC-SVG-20010904/DTD/svg10.dtd">
<svg version="1.0" xmlns="http://www.w3.org/2000/svg"
 width="512.000000pt" height="512.000000pt" viewBox="0 0 512.000000 512.000000"
 preserveAspectRatio="xMidYMid meet">
<metadata>
Created by potrace 1.14, written by Peter Selinger 2001-2017
</metadata>
<g transform="translate(0.000000,512.000000) scale(0.100000,-0.100000)"
fill="#000000" stroke="none">
<path d="M0 2560 l0 -2560 2560 0 2560 0 0 2560 0 2560 -2560 0 -2560 0 0
-2560z m2016 735 c175 -31 285 -107 336 -233 23 -57 23 -58 26 -644 l3 -588
-104 0 -103 0 -48 65 c-26 35 -51 67 -56 70 -5 3 -36 -12 -68 -35 -125 -85
-233 -119 -402 -127 -388 -18 -545 152 -509 550 10 106 48 198 102 243 49 42
145 83 233 99 64 13 371 34 497 35 l27 0 0 119 c0 104 -2 120 -17 126 -33 14
-299 18 -404 5 -92 -10 -265 -41 -310 -55 -13 -5 -20 16 -38 127 -13 73 -25
141 -27 150 -4 13 9 21 61 37 206 64 597 91 801 56z m1668 -14 c187 -50 275
-153 297 -347 5 -50 8 -310 7 -594 l-3 -505 -102 -3 -101 -3 -54 70 c-29 39
-56 70 -60 71 -5 0 -30 -16 -56 -35 -137 -98 -293 -141 -486 -132 -195 8 -303
54 -367 155 -43 69 -60 133 -66 258 -9 182 18 286 96 367 91 96 225 127 624
143 l147 6 0 118 0 118 -50 11 c-65 14 -280 14 -390 1 -47 -6 -130 -20 -185
-32 -55 -11 -106 -21 -114 -22 -11 -1 -21 31 -38 129 -13 72 -22 139 -21 149
4 24 49 40 183 67 155 30 254 38 465 35 161 -3 209 -7 274 -25z"/>
<path d="M1587 2479 c-95 -22 -107 -48 -107 -239 l0 -140 160 0 c184 0 248 10
281 46 23 24 24 33 27 185 l3 159 -163 -1 c-90 -1 -180 -5 -201 -10z"/>
<path d="M3191 2480 c-48 -11 -84 -41 -98 -81 -7 -19 -12 -91 -12 -167 l-1
-134 188 4 c283 5 295 15 290 258 l-3 125 -165 2 c-91 0 -180 -2 -199 -7z"/>
</g>
</svg>
