<svg width="512" height="512" viewBox="0 0 512 512" fill="none" xmlns="http://www.w3.org/2000/svg">
<rect width="512" height="512" fill="currentColor"/>
<path d="M155.841 332.21C139.264 332.21 127.217 328.644 119.7 321.512C112.182 314.187 108.424 302.429 108.424 286.238C108.424 276.793 109.58 269.083 111.893 263.108C114.399 256.94 118.543 252.121 124.326 248.651C130.108 245.182 138.204 242.772 148.613 241.423C159.214 240.074 172.61 239.399 188.802 239.399H203.836V263.108H169.719C161.431 263.108 155.744 264.168 152.66 266.288C149.576 268.216 148.034 271.974 148.034 277.564V301.851H173.767C182.055 301.851 187.645 300.887 190.536 298.96C193.62 297.032 195.162 293.37 195.162 287.973V215.112C190.151 213.57 182.826 212.799 173.189 212.799C165.093 212.799 156.612 213.377 147.745 214.534C139.071 215.691 129.915 217.522 120.278 220.027L115.073 189.958C121.049 187.838 127.506 186.103 134.445 184.754C141.577 183.404 148.902 182.441 156.419 181.862C163.936 181.091 171.357 180.706 178.682 180.706C192.946 180.706 204.414 182.248 213.088 185.332C221.955 188.223 228.316 193.042 232.171 199.788C236.219 206.342 238.243 215.112 238.243 226.099V328.74H217.425L206.438 314.284C199.307 320.259 191.5 324.789 183.019 327.873C174.731 330.764 165.671 332.21 155.841 332.21Z" fill="white"/>
<path d="M316.217 332.21C299.64 332.21 287.593 328.644 280.076 321.512C272.559 314.187 268.8 302.429 268.8 286.238C268.8 276.793 269.957 269.083 272.27 263.108C274.775 256.94 278.92 252.121 284.702 248.651C290.485 245.182 298.58 242.772 308.989 241.423C319.59 240.074 332.987 239.399 349.178 239.399H364.213V263.108H330.095C321.807 263.108 316.121 264.168 313.037 266.288C309.953 268.216 308.411 271.974 308.411 277.564V301.851H334.143C342.432 301.851 348.021 300.887 350.913 298.96C353.997 297.032 355.539 293.37 355.539 287.973V215.112C350.527 213.57 343.203 212.799 333.565 212.799C325.469 212.799 316.988 213.377 308.122 214.534C299.448 215.691 290.292 217.522 280.654 220.027L275.45 189.958C281.425 187.838 287.883 186.103 294.822 184.754C301.954 183.404 309.278 182.441 316.795 181.862C324.313 181.091 331.734 180.706 339.058 180.706C353.322 180.706 364.791 182.248 373.465 185.332C382.331 188.223 388.692 193.042 392.547 199.788C396.595 206.342 398.619 215.112 398.619 226.099V328.74H377.802L366.815 314.284C359.683 320.259 351.877 324.789 343.395 327.873C335.107 330.764 326.048 332.21 316.217 332.21Z" fill="white"/>
</svg>
