<svg viewBox="0 0 32 32" xmlns="http://www.w3.org/2000/svg"><path fill-rule="evenodd" clip-rule="evenodd" d="M15.5 2C7.489 2 1 8.423 1 16.354c0 6.352 4.15 11.717 9.914 13.619.725.125.997-.305.997-.682 0-.341-.018-1.471-.018-2.674-3.643.664-4.586-.879-4.876-1.686-.163-.413-.87-1.687-1.486-2.028-.507-.269-1.232-.933-.018-.95 1.142-.019 1.958 1.04 2.23 1.47 1.304 2.172 3.389 1.562 4.223 1.185.127-.933.507-1.561.924-1.92-3.226-.359-6.598-1.597-6.598-7.087 0-1.562.562-2.853 1.487-3.858-.145-.359-.653-1.83.145-3.804 0 0 1.214-.377 3.987 1.471a13.584 13.584 0 0 1 3.625-.484c1.233 0 2.465.161 3.625.484C21.934 7.544 23.15 7.94 23.15 7.94c.797 1.974.29 3.445.145 3.804.924 1.005 1.486 2.279 1.486 3.857 0 5.509-3.39 6.729-6.616 7.088.526.448.98 1.31.98 2.655 0 1.92-.019 3.463-.019 3.948 0 .377.272.825.997.682C25.849 28.07 30 22.688 30 16.354 30 8.424 23.511 2 15.5 2Z" fill="currentColor"/></svg>